<?xml version="1.0" standalone="no"?>
<!DOCTYPE svg PUBLIC "-//W3C//DTD SVG 20010904//EN"
 "http://www.w3.org/TR/2001/REC-SVG-20010904/DTD/svg10.dtd">
<svg version="1.0" xmlns="http://www.w3.org/2000/svg"
 width="1080.000000pt" height="1080.000000pt" viewBox="0 0 1080.000000 1080.000000"
 preserveAspectRatio="xMidYMid meet">

<g transform="translate(0.000000,1080.000000) scale(0.100000,-0.100000)"
fill="#000000" stroke="none">
<path d="M1584 5926 c-17 -8 -40 -27 -51 -42 -11 -16 -85 -209 -163 -429 -121
-340 -142 -409 -143 -460 -2 -199 229 -281 424 -149 l52 35 26 -25 c37 -36
115 -67 180 -73 169 -16 356 94 430 251 16 33 86 220 156 415 137 381 145 416
103 457 -52 51 -134 34 -177 -37 -10 -17 -74 -187 -142 -377 -67 -191 -135
-372 -150 -403 -42 -85 -112 -139 -178 -139 -30 0 -61 27 -61 53 0 9 63 193
140 408 87 242 140 405 140 428 0 74 -65 116 -133 87 -66 -28 -59 -12 -273
-608 -68 -190 -83 -225 -122 -276 -35 -46 -103 -84 -144 -80 -67 6 -65 16 90
452 78 218 142 408 142 422 0 40 -27 81 -61 93 -40 14 -47 13 -85 -3z"/>
<path d="M4604 5931 c-37 -16 -59 -60 -124 -246 -35 -99 -64 -181 -66 -183 -1
-2 -20 8 -42 23 -54 36 -144 45 -206 21 -92 -35 -111 -68 -217 -375 -51 -147
-120 -231 -190 -231 -52 0 -50 19 36 255 49 137 58 178 45 225 -30 110 -166
171 -276 125 -32 -13 -38 -13 -57 0 -26 18 -76 19 -111 4 -28 -13 -36 -32
-146 -344 -42 -117 -74 -190 -92 -211 -50 -57 -130 -72 -136 -26 -2 13 33 128
77 256 82 236 90 271 70 308 -26 48 -113 54 -160 12 -17 -15 -22 -15 -65 0
-115 39 -240 5 -294 -80 -26 -41 -153 -394 -166 -460 -15 -77 48 -178 132
-210 59 -22 131 -14 198 24 l52 30 29 -24 c40 -32 115 -48 184 -39 64 8 73 8
122 -1 42 -7 91 14 113 49 8 12 51 125 95 251 46 132 92 243 107 263 45 60
118 76 130 29 3 -13 -17 -84 -51 -176 -68 -188 -77 -249 -45 -314 33 -70 92
-101 191 -101 66 0 84 4 139 32 l62 33 29 -25 c71 -59 201 -57 288 4 l30 21
36 -25 c96 -64 208 -58 315 19 l50 36 53 -35 c160 -106 419 -77 579 64 74 66
116 144 190 356 6 17 14 34 18 38 11 12 78 -23 83 -44 3 -9 -13 -68 -34 -131
-56 -164 -51 -229 24 -295 96 -84 232 -65 346 49 54 55 151 231 151 275 0 46
-81 79 -130 53 -11 -6 -39 -52 -64 -103 -47 -97 -107 -167 -146 -167 -36 0
-33 40 14 170 59 166 63 187 38 243 -23 51 -96 106 -169 128 -38 11 -43 16
-43 41 0 68 -50 118 -116 118 -94 0 -153 -111 -108 -205 15 -33 14 -36 -40
-179 -73 -196 -131 -266 -249 -301 -149 -44 -273 14 -253 119 l7 34 52 -20
c111 -43 247 -1 314 96 56 81 68 168 34 241 -26 56 -55 83 -119 113 -105 48
-249 17 -329 -71 -41 -46 -50 -66 -114 -255 -52 -151 -91 -221 -142 -253 -50
-30 -97 -20 -97 21 0 8 65 203 145 433 80 230 145 429 145 442 0 53 -74 97
-126 76z m443 -543 c35 -27 21 -105 -23 -129 -27 -14 -102 -15 -116 -1 -9 9
18 88 41 116 28 33 65 39 98 14z m-2143 -14 c9 -8 16 -31 16 -50 0 -41 -73
-272 -102 -325 -39 -71 -128 -80 -128 -15 0 43 108 358 131 382 26 28 61 31
83 8z m1398 -1 c27 -25 22 -78 -18 -189 -46 -129 -70 -170 -110 -189 -39 -18
-62 -11 -71 23 -8 33 83 305 115 344 27 32 57 36 84 11z"/>
<path d="M8235 5926 c-17 -7 -38 -28 -48 -47 -9 -19 -80 -213 -156 -432 -160
-457 -176 -488 -274 -504 -68 -11 -66 6 30 289 81 237 86 256 74 285 -18 44
-69 67 -117 54 -20 -6 -44 -17 -54 -26 -17 -15 -22 -15 -64 -1 -90 31 -186 17
-249 -35 -48 -39 -60 -65 -138 -284 -54 -151 -64 -190 -64 -246 0 -55 4 -72
28 -108 32 -49 110 -91 168 -91 44 0 110 22 150 51 l29 21 31 -26 c66 -56 188
-59 289 -9 l58 29 28 -22 c80 -64 230 -54 329 21 51 40 57 41 76 19 36 -43
164 -84 263 -84 69 0 198 33 253 65 l43 26 35 -26 c82 -63 265 -90 415 -61
169 32 291 121 363 265 20 40 37 84 37 97 0 31 -45 64 -86 64 -40 0 -64 -21
-98 -87 -13 -26 -44 -68 -69 -91 l-44 -44 -5 62 c-4 52 -15 82 -66 181 -34 66
-62 127 -62 136 0 9 12 30 28 46 21 22 27 38 27 73 0 39 -5 50 -33 75 -25 22
-42 29 -73 29 -70 0 -99 -27 -169 -157 -107 -200 -120 -222 -139 -228 -31 -9
-79 -69 -98 -120 -52 -139 -306 -198 -391 -90 -24 31 -27 51 -12 90 l10 26 32
-18 c52 -28 170 -25 232 7 180 92 197 350 29 431 -56 27 -150 36 -208 20 -62
-16 -132 -66 -164 -116 -16 -25 -52 -114 -81 -198 -72 -208 -135 -297 -212
-297 -60 0 -59 3 96 452 80 233 146 437 146 455 0 45 -9 62 -41 78 -34 18 -45
18 -84 1z m461 -551 c22 -34 11 -90 -22 -111 -28 -19 -100 -22 -116 -6 -15 15
4 79 33 116 28 36 82 36 105 1z m-1105 -1 c23 -28 15 -83 -31 -228 -34 -106
-52 -148 -76 -173 -49 -52 -104 -41 -104 20 0 42 98 342 122 372 23 29 68 34
89 9z m1665 -271 c13 -45 14 -63 5 -94 -21 -71 -93 -99 -161 -64 -37 19 -39
35 -5 35 75 0 136 84 115 159 -6 22 -15 43 -20 46 -6 4 -7 11 -4 17 12 19 52
-39 70 -99z"/>
<path d="M6628 5894 c-55 -29 -63 -81 -19 -125 29 -29 31 -29 140 -29 61 0
111 -2 111 -4 0 -3 -65 -193 -145 -422 -80 -229 -145 -429 -145 -445 0 -41 9
-58 41 -74 38 -20 78 -19 115 4 36 22 38 26 149 346 40 116 103 296 140 401
l67 192 132 4 c142 4 167 12 187 60 14 33 -2 83 -32 98 -10 6 -161 10 -366 10
-288 -1 -353 -3 -375 -16z"/>
</g>
</svg>
